<svg width="438" height="433" viewBox="0 0 438 433" fill="none" xmlns="http://www.w3.org/2000/svg">
<path d="M36.7484 197.532C36.0839 196.647 35.1729 196.68 34.3482 196.517C31.1688 195.886 29.925 194.518 29.5801 191.273C29.4726 190.264 29.7292 189.168 28.8882 188.278C27.9793 188.716 28.2755 189.607 28.1436 190.295C27.4162 194.067 26.276 195.237 22.4686 196.026C22.1318 196.096 21.7747 196.131 21.4704 196.274C21.2634 196.372 21.0301 196.61 20.9875 196.821C20.9084 197.221 21.2289 197.424 21.5749 197.537C21.7382 197.591 21.9117 197.643 22.0811 197.648C26.1674 197.766 26.9962 200.585 27.613 204.293C27.7287 204.99 27.1555 206.203 28.2238 206.255C29.4543 206.314 29.0698 205.019 29.1632 204.239C29.6268 200.335 31.3311 198.157 35.7208 198.04C36.0555 198.029 36.4045 198.033 36.7484 197.532Z" fill="white"/>
<path d="M376.474 104.691C375.81 103.805 374.899 103.838 374.074 103.675C370.895 103.044 369.651 101.677 369.306 98.4313C369.198 97.4219 369.455 96.3262 368.614 95.4365C367.705 95.8738 368.001 96.7655 367.869 97.4533C367.142 101.225 366.002 102.395 362.194 103.184C361.858 103.254 361.501 103.29 361.196 103.433C360.989 103.53 360.756 103.768 360.713 103.979C360.634 104.379 360.955 104.582 361.301 104.696C361.464 104.749 361.638 104.801 361.807 104.806C365.893 104.924 366.722 107.743 367.339 111.451C367.455 112.148 366.881 113.361 367.95 113.413C369.18 113.472 368.796 112.177 368.889 111.397C369.353 107.494 371.057 105.316 375.447 105.198C375.781 105.187 376.13 105.19 376.474 104.691Z" fill="white"/>
<path d="M66.7476 12.7993C65.8853 11.6499 64.7045 11.6935 63.6342 11.4814C59.5103 10.6628 57.8963 8.88844 57.4489 4.67936C57.3099 3.36967 57.6427 1.9494 56.5511 0.794922C55.3713 1.36202 55.7568 2.51852 55.5843 3.41126C54.6398 8.30308 53.1617 9.82176 48.2222 10.8454C47.785 10.9357 47.3224 10.9813 46.9278 11.168C46.6589 11.2948 46.3556 11.6032 46.3018 11.8771C46.1994 12.3955 46.6153 12.6582 47.0637 12.8053C47.2757 12.8753 47.4999 12.9423 47.7211 12.9484C53.0217 13.1006 54.0971 16.7578 54.8975 21.5674C55.0477 22.4723 54.304 24.0458 55.6888 24.1127C57.2856 24.1888 56.7865 22.5099 56.9072 21.4984C57.5078 16.4352 59.7193 13.6098 65.4136 13.4566C65.8488 13.4434 66.3013 13.4475 66.7476 12.7993Z" fill="white"/>
<path d="M180.994 347.472C180.404 346.685 179.595 346.715 178.862 346.57C176.038 346.01 174.933 344.795 174.626 341.913C174.531 341.016 174.759 340.043 174.012 339.253C173.204 339.641 173.468 340.433 173.35 341.044C172.704 344.394 171.691 345.434 168.309 346.135C168.01 346.197 167.693 346.228 167.422 346.356C167.239 346.444 167.031 346.655 166.994 346.842C166.924 347.197 167.208 347.377 167.516 347.478C167.661 347.526 167.815 347.573 167.965 347.577C171.595 347.681 172.332 350.185 172.879 353.478C172.983 354.098 172.473 355.175 173.421 355.221C174.514 355.274 174.173 354.123 174.255 353.43C174.667 349.964 176.18 348.028 180.08 347.924C180.378 347.914 180.689 347.917 180.994 347.472Z" fill="white"/>
<path d="M428.694 20.4506C427.832 19.3012 426.651 19.3448 425.581 19.1328C421.457 18.3141 419.843 16.5398 419.396 12.3307C419.257 11.021 419.589 9.60077 418.498 8.44629C417.318 9.01338 417.704 10.1699 417.531 11.0626C416.587 15.9544 415.108 17.4731 410.17 18.4967C409.733 18.587 409.27 18.6327 408.876 18.8193C408.607 18.9461 408.303 19.2546 408.25 19.5285C408.147 20.0469 408.563 20.3096 409.011 20.4567C409.223 20.5267 409.448 20.5937 409.669 20.5998C414.969 20.7519 416.046 24.4091 416.845 29.2188C416.995 30.1237 416.252 31.6971 417.637 31.7641C419.233 31.8402 418.734 30.1612 418.855 29.1498C419.456 24.0865 421.667 21.2612 427.361 21.107C427.796 21.0948 428.249 21.0989 428.694 20.4506Z" fill="white"/>
<path d="M325.711 218.857C326.807 216.699 328.892 215.797 329.737 213.798C327.673 213.77 327.673 213.771 324.721 215.614C323.079 212.895 324.176 209.699 323.281 206.22C320.889 209.277 322.694 212.662 320.785 215.347C319.78 215.766 319.412 214.486 318.688 213.955C318.1 213.524 317.439 212.833 316.812 213.384C315.876 214.206 316.829 214.904 317.32 215.559C317.906 216.343 318.518 217.108 319.511 218.388C316.475 218.979 313.925 218.384 311.434 218.58C309.828 218.707 307.016 217.634 306.932 219.617C306.835 221.888 309.654 220.789 311.191 220.927C313.439 221.129 315.719 220.978 318.448 220.978C317.695 223.011 316.296 223.671 315.48 224.772C315.033 225.372 314.685 226.047 315.415 226.674C315.934 227.12 316.489 226.891 316.999 226.573C318.227 225.81 318.943 224.404 320.661 223.769C321.816 225.907 320.974 228.212 321.207 230.383C321.366 231.852 320.396 234.4 322.366 234.435C324.338 234.471 323.526 231.904 323.626 230.444C323.764 228.429 323.66 226.397 323.66 224.095C325.828 224.429 326.463 226.304 327.786 227.237C328.283 227.588 328.798 227.901 329.334 227.514C329.89 227.111 329.755 226.491 329.503 225.944C329.383 225.686 329.161 225.477 329.01 225.229C328.373 224.186 326.559 223.391 327.508 222.001C328.271 220.884 329.949 221.596 331.223 221.495C332.995 221.353 334.975 222.167 336.708 220.272C333.206 218.346 329.468 219.913 325.711 218.857Z" fill="white"/>
<path d="M73.5598 417.422C74.6565 415.264 76.7412 414.362 77.5852 412.362C75.5208 412.335 75.5208 412.335 72.5686 414.178C70.9272 411.459 72.0239 408.264 71.1291 404.784C68.737 407.842 70.5417 411.226 68.6335 413.911C67.6281 414.33 67.2599 413.05 66.5366 412.52C65.9482 412.088 65.2867 411.398 64.6598 411.948C63.7244 412.77 64.677 413.468 65.168 414.124C65.7544 414.908 66.3661 415.673 67.3593 416.953C64.3219 417.543 61.7736 416.949 59.282 417.145C57.6761 417.271 54.864 416.198 54.7798 418.181C54.6834 420.453 57.5026 419.353 59.0395 419.491C61.2876 419.693 63.5672 419.543 66.2961 419.543C65.5444 421.576 64.1444 422.235 63.3278 423.336C62.8814 423.937 62.5334 424.611 63.2628 425.238C63.7822 425.685 64.3372 425.455 64.8474 425.138C66.075 424.375 66.7912 422.969 68.5087 422.334C69.6642 424.471 68.8222 426.776 69.0555 428.947C69.2138 430.416 68.2439 432.964 70.214 433C72.1862 433.035 71.3746 430.469 71.475 429.009C71.613 426.993 71.5095 424.961 71.5095 422.659C73.6775 422.993 74.3136 424.869 75.6354 425.801C76.1325 426.152 76.6469 426.466 77.1835 426.078C77.7395 425.675 77.6055 425.056 77.3519 424.509C77.2322 424.25 77.01 424.041 76.8589 423.794C76.2218 422.751 74.4079 421.955 75.3575 420.565C76.1203 419.449 77.7983 420.161 79.0725 420.059C80.8438 419.917 82.824 420.732 84.5568 418.837C81.0548 416.91 77.3174 418.478 73.5598 417.422Z" fill="white"/>
<path d="M103.153 363.927C103.153 365.031 104.048 365.927 105.153 365.927C106.257 365.927 107.152 365.032 107.152 363.927C107.152 362.823 106.257 361.928 105.153 361.928C104.048 361.928 103.153 362.824 103.153 363.927Z" fill="white"/>
<path d="M148.48 26.1133C149.584 26.1133 150.48 25.2181 150.48 24.1138C150.48 23.0095 149.584 22.1143 148.48 22.1143C147.376 22.1143 146.48 23.0095 146.48 24.1138C146.48 25.2181 147.376 26.1133 148.48 26.1133Z" fill="white"/>
<path d="M315.136 159.807C315.136 160.911 316.031 161.807 317.135 161.807C318.239 161.807 319.135 160.912 319.135 159.807C319.135 158.703 318.24 157.808 317.135 157.808C316.031 157.808 315.136 158.703 315.136 159.807Z" fill="white"/>
<path d="M10.4084 400.094C10.4084 401.198 11.3032 402.094 12.408 402.094C13.5128 402.094 14.4075 401.199 14.4075 400.094C14.4075 398.99 13.5128 398.095 12.408 398.095C11.3032 398.095 10.4084 398.991 10.4084 400.094Z" fill="white"/>
<path d="M20.9753 332.367C20.9753 333.471 21.8701 334.366 22.9749 334.366C24.0786 334.366 24.9744 333.471 24.9744 332.367C24.9744 331.263 24.0796 330.367 22.9749 330.367C21.8701 330.367 20.9753 331.263 20.9753 332.367Z" fill="white"/>
<path d="M435.393 316.339C436.497 316.339 437.393 315.444 437.393 314.339C437.393 313.235 436.497 312.34 435.393 312.34C434.289 312.34 433.394 313.235 433.394 314.339C433.394 315.444 434.289 316.339 435.393 316.339Z" fill="white"/>
<path d="M349.653 37.3663C350.758 37.3663 351.653 36.471 351.653 35.3667C351.653 34.2624 350.758 33.3672 349.653 33.3672C348.549 33.3672 347.654 34.2624 347.654 35.3667C347.654 36.471 348.549 37.3663 349.653 37.3663Z" fill="white"/>
<path d="M283.709 10.4546C283.709 11.5594 284.604 12.4542 285.709 12.4542C286.814 12.4542 287.708 11.5594 287.708 10.4546C287.708 9.35086 286.814 8.45508 285.709 8.45508C284.604 8.45508 283.709 9.34985 283.709 10.4546Z" fill="white"/>
<path d="M57.4285 81.9214C57.4285 83.0252 58.3232 83.921 59.428 83.921C60.5318 83.921 61.4275 83.0262 61.4275 81.9214C61.4275 80.8166 60.5328 79.9219 59.428 79.9219C58.3232 79.9229 57.4285 80.8177 57.4285 81.9214Z" fill="white"/>
<path d="M433.515 416.894C433.515 417.998 434.41 418.894 435.515 418.894C436.62 418.894 437.514 417.999 437.514 416.894C437.514 415.79 436.62 414.895 435.515 414.895C434.41 414.895 433.515 415.79 433.515 416.894Z" fill="white"/>
<path d="M386.605 285.473C386.605 286.577 387.5 287.473 388.604 287.473C389.709 287.473 390.604 286.578 390.604 285.473C390.604 284.369 389.709 283.474 388.604 283.474C387.5 283.474 386.605 284.369 386.605 285.473Z" fill="white"/>
<path d="M250.548 236.355C250.548 237.459 251.443 238.355 252.547 238.355C253.652 238.355 254.547 237.46 254.547 236.355C254.547 235.25 253.652 234.355 252.547 234.355C251.443 234.355 250.548 235.251 250.548 236.355Z" fill="white"/>
<path d="M178.543 196.598C179.648 196.598 180.543 195.702 180.543 194.598C180.543 193.494 179.648 192.599 178.543 192.599C177.439 192.599 176.544 193.494 176.544 194.598C176.544 195.702 177.439 196.598 178.543 196.598Z" fill="white"/>
<path d="M176.545 404.093C177.649 404.093 178.544 403.198 178.544 402.093C178.544 400.989 177.649 400.094 176.545 400.094C175.44 400.094 174.545 400.989 174.545 402.093C174.545 403.198 175.44 404.093 176.545 404.093Z" fill="white"/>
<path d="M85.9587 157.808C85.9587 158.912 86.8535 159.808 87.9583 159.808C89.062 159.808 89.9578 158.913 89.9578 157.808C89.9578 156.703 89.063 155.809 87.9583 155.809C86.8535 155.81 85.9587 156.704 85.9587 157.808Z" fill="white"/>
<path d="M418.464 150.588C419.569 150.588 420.464 149.693 420.464 148.588C420.464 147.484 419.569 146.589 418.464 146.589C417.36 146.589 416.465 147.484 416.465 148.588C416.465 149.693 417.36 150.588 418.464 150.588Z" fill="white"/>
<path d="M381.363 203.203C381.363 204.306 382.258 205.202 383.363 205.202C384.466 205.202 385.362 204.307 385.362 203.203C385.362 202.098 384.467 201.203 383.363 201.203C382.258 201.203 381.363 202.099 381.363 203.203Z" fill="white"/>
<path d="M238.519 270.412C238.519 271.515 239.414 272.411 240.519 272.411C241.623 272.411 242.518 271.516 242.518 270.412C242.518 269.307 241.624 268.412 240.519 268.412C239.414 268.412 238.519 269.307 238.519 270.412Z" fill="white"/>
<path d="M2.77957 121.996C3.88388 121.996 4.77911 121.101 4.77911 119.997C4.77911 118.892 3.88388 117.997 2.77957 117.997C1.67525 117.997 0.780029 118.892 0.780029 119.997C0.780029 121.101 1.67525 121.996 2.77957 121.996Z" fill="white"/>
<path d="M258.191 406.736C258.191 407.84 259.086 408.735 260.19 408.735C261.294 408.735 262.19 407.841 262.19 406.736C262.19 405.631 261.295 404.736 260.19 404.736C259.086 404.737 258.191 405.632 258.191 406.736Z" fill="white"/>
</svg>
