<?xml version="1.0" standalone="no"?>
<!DOCTYPE svg PUBLIC "-//W3C//DTD SVG 20010904//EN"
 "http://www.w3.org/TR/2001/REC-SVG-20010904/DTD/svg10.dtd">
<svg version="1.0" xmlns="http://www.w3.org/2000/svg"
 width="1008.000000pt" height="1008.000000pt" viewBox="0 0 1008.000000 1008.000000"
 preserveAspectRatio="xMidYMid meet">
<metadata>
Created by potrace 1.14, written by Peter Selinger 2001-2017
</metadata>
<g transform="translate(0.000000,1008.000000) scale(0.100000,-0.100000)"
fill="#000000" stroke="none">
<path d="M4885 8433 c-33 -7 -71 -18 -85 -24 -14 -7 -41 -19 -60 -28 -19 -9
-66 -46 -103 -83 -225 -222 -193 -577 68 -758 60 -41 110 -62 183 -75 23 -4
44 -10 46 -14 2 -3 -3 -22 -12 -41 -10 -19 -28 -62 -41 -95 -13 -33 -32 -79
-42 -102 -10 -24 -19 -47 -19 -53 0 -6 -4 -18 -10 -28 -12 -22 -26 -56 -88
-212 -87 -217 -142 -354 -157 -385 -7 -16 -11 -33 -9 -37 3 -4 0 -8 -5 -8 -6
0 -11 -7 -11 -15 0 -8 -4 -23 -9 -33 -5 -9 -17 -37 -27 -62 -10 -25 -28 -69
-41 -98 -13 -29 -23 -56 -23 -61 0 -4 -8 -23 -17 -42 -10 -19 -19 -43 -20 -53
-2 -11 -7 -24 -12 -30 -5 -6 -12 -22 -16 -36 -4 -14 -16 -43 -26 -65 -10 -22
-57 -137 -104 -255 -47 -118 -90 -224 -95 -235 -5 -11 -40 -99 -79 -195 -38
-96 -75 -188 -82 -205 -7 -16 -13 -32 -14 -35 -1 -3 -6 -16 -12 -30 -6 -14
-36 -87 -66 -163 -31 -75 -60 -143 -64 -151 -6 -10 -40 40 -113 166 -58 100
-116 200 -129 222 -13 23 -32 55 -41 71 -9 17 -40 68 -67 115 -28 47 -61 103
-73 125 -13 22 -30 52 -39 67 -62 105 -237 404 -240 413 -2 5 -17 29 -33 53
-16 23 -26 42 -23 42 3 0 1 6 -5 13 -13 14 -54 79 -55 87 0 3 -8 16 -16 30
-18 27 -145 244 -176 300 -11 19 -34 58 -51 86 -18 28 -32 54 -32 57 0 3 14 9
32 12 38 9 115 51 155 85 100 85 156 244 130 370 -57 272 -354 407 -591 268
-64 -38 -121 -100 -153 -168 -34 -69 -36 -79 -36 -165 -1 -91 7 -126 45 -197
52 -98 150 -170 265 -198 36 -8 51 -16 46 -23 -4 -7 -8 -16 -10 -22 -1 -5 -21
-80 -43 -165 -23 -85 -43 -159 -45 -165 -1 -5 -5 -17 -8 -25 -5 -12 -24 -84
-43 -160 -5 -24 -51 -192 -99 -365 -24 -88 -54 -196 -65 -240 -12 -44 -26 -96
-31 -115 -5 -19 -12 -44 -14 -55 -3 -11 -16 -60 -30 -110 -14 -49 -27 -97 -30
-105 -22 -91 -66 -253 -75 -276 -6 -16 -11 -31 -10 -34 2 -9 -23 -105 -34
-132 l-12 -26 -127 74 c-71 41 -132 74 -137 74 -4 0 -10 4 -12 8 -3 7 -128 81
-268 160 -25 13 -52 30 -60 36 -8 7 -26 17 -40 24 -14 7 -32 16 -40 22 -52 34
-222 130 -230 130 -6 0 -10 4 -10 8 0 4 -12 13 -28 19 -26 12 -62 33 -72 43
-3 3 -21 13 -40 23 -19 9 -48 26 -65 37 -16 11 -46 28 -65 38 -19 10 -81 47
-138 80 -57 34 -108 62 -113 62 -5 0 -9 4 -9 9 0 5 -9 11 -20 14 -28 7 -25 20
12 41 66 39 136 130 163 211 8 24 17 88 19 130 3 55 -46 205 -66 205 -5 0 -8
6 -8 14 0 22 -95 102 -154 130 -107 51 -234 50 -341 -4 -63 -30 -155 -111
-155 -136 0 -8 -3 -14 -8 -14 -10 0 -40 -70 -51 -119 -9 -42 -7 -137 4 -186
19 -86 102 -195 183 -240 66 -37 150 -57 219 -52 56 5 60 3 70 -22 41 -94 88
-202 103 -236 10 -22 37 -85 60 -140 23 -55 45 -104 48 -110 4 -5 7 -12 7 -15
1 -3 13 -31 28 -63 15 -32 27 -60 27 -62 0 -2 12 -30 26 -62 14 -32 32 -71 39
-88 7 -16 23 -52 35 -80 12 -27 43 -97 67 -155 44 -103 62 -143 109 -248 13
-29 24 -55 24 -57 0 -2 11 -28 24 -57 14 -29 48 -107 76 -173 50 -116 72 -168
91 -210 119 -270 147 -335 145 -336 0 0 -37 -1 -81 -2 l-79 -2 1 -70 c0 -38 1
-74 2 -80 1 -6 34 -10 81 -9 l79 0 0 -676 0 -677 -52 -1 c-29 0 -66 -1 -82 -1
l-30 -1 1 -67 c1 -38 2 -73 3 -78 1 -7 1177 -10 3719 -10 l3717 0 0 79 0 80
-65 0 -65 1 0 673 c0 369 2 673 5 674 3 0 32 2 65 3 l60 2 0 79 0 79 -57 1
c-32 0 -60 3 -63 6 -5 5 23 73 90 223 11 25 103 237 322 740 19 44 41 94 48
110 56 121 197 452 198 463 0 6 4 12 9 12 4 0 8 5 8 11 0 5 8 29 19 52 10 23
32 74 49 112 16 39 38 88 48 110 9 22 18 42 19 45 4 11 24 57 50 115 69 154
65 148 81 134 10 -8 50 -14 104 -15 80 -2 94 1 166 32 145 63 236 195 237 344
0 41 -3 91 -7 110 -11 52 -63 143 -107 187 -42 43 -148 102 -195 109 -111 15
-218 -6 -299 -60 -52 -34 -125 -113 -125 -135 0 -6 -4 -11 -10 -11 -5 0 -10
-7 -10 -16 0 -8 -5 -25 -12 -37 -37 -69 -26 -222 24 -317 24 -47 109 -140 127
-140 36 0 -35 -46 -284 -185 -30 -17 -60 -36 -67 -43 -7 -7 -16 -12 -20 -12
-4 0 -36 -17 -70 -38 -35 -21 -70 -41 -78 -45 -8 -4 -33 -18 -55 -32 -22 -14
-51 -31 -65 -38 -14 -6 -27 -14 -30 -17 -9 -9 -65 -41 -92 -53 -16 -6 -28 -15
-28 -19 0 -4 -7 -8 -15 -8 -8 0 -15 -3 -15 -8 0 -4 -17 -15 -37 -24 -42 -19
-95 -50 -103 -59 -3 -3 -17 -12 -32 -20 -15 -8 -64 -35 -109 -61 -45 -27 -86
-48 -90 -48 -5 0 -9 -3 -9 -7 0 -5 -23 -19 -50 -32 -28 -14 -50 -29 -50 -33 0
-4 -5 -8 -11 -8 -6 0 -45 -20 -86 -45 -40 -25 -77 -45 -82 -45 -5 0 -14 -7
-21 -15 -21 -25 -33 -5 -56 95 -1 8 -19 76 -39 150 -20 74 -38 142 -41 150
-23 93 -38 148 -45 165 -4 11 -12 40 -18 65 -7 25 -14 53 -16 63 -3 9 -7 25
-10 35 -2 9 -27 100 -55 202 -27 102 -52 195 -54 207 -3 13 -7 26 -10 31 -3 5
-7 19 -10 33 -3 13 -10 42 -16 64 -6 22 -12 47 -14 55 -3 8 -12 42 -21 75 -15
55 -31 113 -95 350 -12 44 -24 91 -26 104 -3 14 -7 28 -10 33 -7 11 -33 112
-30 116 2 1 27 4 57 6 98 7 181 46 250 117 80 82 119 186 113 300 -4 73 -9 91
-41 156 -53 105 -162 188 -273 209 -77 15 -169 6 -224 -22 -16 -8 -35 -14 -43
-14 -7 0 -13 -3 -13 -7 0 -5 -17 -18 -38 -31 -33 -20 -116 -120 -117 -140 -1
-4 -6 -16 -12 -27 -30 -54 -34 -200 -7 -273 38 -100 110 -184 192 -224 26 -12
49 -23 51 -25 2 -1 -24 -50 -58 -108 -34 -58 -70 -120 -80 -138 -10 -18 -33
-57 -51 -87 -18 -30 -41 -68 -50 -85 -10 -16 -48 -82 -85 -145 -37 -63 -75
-129 -85 -145 -16 -28 -77 -133 -213 -365 -55 -95 -77 -132 -108 -187 -12 -21
-43 -74 -69 -118 -128 -217 -210 -357 -210 -360 0 -2 -20 -35 -44 -74 l-44
-71 -22 62 c-13 35 -26 68 -30 73 -4 6 -11 21 -15 35 -4 14 -18 49 -31 78 -13
29 -24 56 -24 61 0 4 -6 21 -14 37 -8 16 -75 180 -149 364 -73 184 -138 344
-142 355 -5 11 -9 22 -10 25 -1 3 -9 22 -18 44 -9 21 -17 41 -17 43 0 3 -7 21
-16 41 -9 21 -20 47 -25 60 -5 12 -13 32 -19 45 -5 12 -48 119 -96 237 -47
118 -92 229 -99 245 -40 96 -50 120 -51 125 0 3 -6 19 -13 35 -16 40 -19 49
-18 55 1 3 -6 19 -15 35 -14 25 -24 48 -33 75 -1 3 -7 18 -13 33 -7 16 -22 52
-33 80 -12 29 -27 66 -34 82 -7 17 -43 107 -80 200 -37 94 -71 174 -76 180
-23 24 -9 42 37 49 67 9 182 67 242 123 28 27 52 54 52 61 0 6 4 12 10 12 18
0 68 115 84 191 40 193 -25 362 -190 499 -93 77 -259 112 -389 83z"/>
</g>
</svg>
